<svg width="182" height="108" viewBox="0 0 182 108" fill="none" xmlns="http://www.w3.org/2000/svg">
<g clip-path="url(#clip0_3247_8931)">
<path d="M101.657 79.9073L114.925 78.1386V77.6183C107.821 77.6183 100.821 77.7224 93.7164 77.6183C82.9552 77.3062 72.0895 77.4102 61.5373 76.1617C54.4328 75.3293 47.9552 71.7917 43.4627 66.2773C63.1045 67.3177 82.8507 68.3582 102.806 69.3987C102.806 68.7744 102.806 68.2542 102.91 67.5258C93.8209 66.6935 84.5224 66.3813 75.4328 64.8206C61.2239 62.3235 47.0149 59.4102 33.0149 55.7686C23.8209 53.2715 18.9104 48.0692 15.3582 40.4738C43.9851 51.8148 72.8209 58.1617 102.806 58.89C95.806 57.7455 88.806 56.8091 81.806 55.5605C61.9552 51.9189 42.3134 46.9247 24.4477 37.0403C18.1791 33.5027 12.3283 29.2368 7.20894 24.2426C3.97013 21.1212 2.29849 16.3351 -0.104492 12.2773C0.417896 11.8611 0.940284 11.653 1.35819 11.2368C4.80596 13.942 8.25372 16.8553 11.806 19.3524C29.3582 31.942 49.5224 38.0807 70 43.6992C88.4925 48.7975 107.194 53.2715 125.164 59.9305C146.164 67.6299 155.045 82.8206 153.687 104.046C153.687 104.878 153.373 105.815 153.06 108C151.701 104.878 150.761 103.11 150.03 101.133C145.642 89.3755 136.134 84.7975 124.537 83.653C119.313 83.1328 113.881 83.653 108.657 83.3409C106.149 83.2368 103.746 82.1964 101.343 81.468C101.343 80.9478 101.343 80.3235 101.448 79.8033L101.657 79.9073Z" fill="url(#paint0_linear_3247_8931)"/>
<path d="M176.358 55.6649L168.627 52.0232C168.627 52.0232 168.209 52.7516 168 53.1678C172.597 55.2487 177.298 57.3296 181.896 59.4105C181.791 59.8267 181.582 60.3469 181.478 60.7631C167.269 58.7863 158.597 67.11 150.866 77.8267C143.97 65.4452 132.373 59.7227 120.672 54.0001C129.343 51.7111 137.806 47.9654 146.164 53.8961C143.239 51.2949 140.313 48.7978 136.761 45.7805C146.164 45.7805 154.209 45.5724 162.149 45.7805C168 46.0926 173.746 47.4452 176.149 55.6649H176.358Z" fill="url(#paint1_linear_3247_8931)"/>
<path d="M92.985 46.5086C71.4626 41.0982 49.5223 35.6878 30.2985 23.6185C24.4477 19.9768 19.5373 14.7745 14.7313 9.67626C12.5373 7.28319 11.8059 3.64158 11.0746 0.104004C22.5671 11.445 35.2089 20.7052 49.6268 27.3641C64.0447 34.0231 78.5671 40.1618 93.0895 46.5086H92.985Z" fill="url(#paint2_linear_3247_8931)"/>
</g>
<defs>
<linearGradient id="paint0_linear_3247_8931" x1="10.7037" y1="35.5732" x2="88.3858" y2="109.694" gradientUnits="userSpaceOnUse">
<stop stop-color="#A329CD"/>
<stop offset="1" stop-color="#7700C7"/>
</linearGradient>
<linearGradient id="paint1_linear_3247_8931" x1="127.254" y1="53.1688" x2="152.926" y2="82.4049" gradientUnits="userSpaceOnUse">
<stop stop-color="#A329CD"/>
<stop offset="1" stop-color="#7700C7"/>
</linearGradient>
<linearGradient id="paint2_linear_3247_8931" x1="19.7044" y1="18.2601" x2="64.6909" y2="50.0025" gradientUnits="userSpaceOnUse">
<stop stop-color="#A329CD"/>
<stop offset="1" stop-color="#7700C7"/>
</linearGradient>
<clipPath id="clip0_3247_8931">
<rect width="182" height="108" fill="white"/>
</clipPath>
</defs>
</svg>
