<svg width="250" height="250" viewBox="0 0 250 250" fill="none" xmlns="http://www.w3.org/2000/svg">
<rect width="250" height="250" fill="url(#paint0_linear_1672_2952)"/>
<g clip-path="url(#clip0_1672_2952)">
<path d="M135.09 150.879L148.284 149.116V148.608C141.244 148.608 134.204 148.75 127.175 148.608C116.474 148.312 105.701 148.383 95.1405 147.141C88.1004 146.301 81.6509 142.74 77.1858 137.227C96.6879 138.256 116.403 139.356 136.2 140.386C136.271 139.794 136.271 139.214 136.342 138.552C127.246 137.676 118.009 137.381 108.996 135.831C94.8452 133.335 80.6941 130.472 66.8382 126.721C57.6719 124.225 52.7579 119.008 49.3206 111.448C77.8355 122.829 106.504 129.147 136.342 129.88C129.373 128.78 122.415 127.822 115.446 126.509C95.6484 122.841 76.1581 117.92 58.416 108.006C52.1673 104.48 46.4029 100.162 41.2646 95.1579C38.028 91.9992 36.3506 87.2315 34 83.1855C34.5079 82.8188 35.0277 82.523 35.4647 82.1562C38.9139 84.8772 42.2804 87.7402 45.8714 90.3074C63.3182 102.86 83.4109 109.035 103.716 114.678C122.12 119.813 140.736 124.296 158.62 130.909C179.516 138.623 188.387 153.813 186.993 175.037C186.922 175.912 186.698 176.8 186.332 179C184.938 175.912 184.064 174.079 183.331 172.174C178.937 160.426 169.546 155.801 157.97 154.7C152.761 154.192 147.41 154.771 142.213 154.405C139.72 154.263 137.37 153.233 134.96 152.571C134.96 152.003 135.019 151.435 135.102 150.879H135.09Z" fill="white"/>
<path d="M209.425 126.65L201.723 123.054C201.498 123.409 201.298 123.776 201.132 124.154C205.751 126.213 210.37 128.342 214.988 130.401C214.846 130.838 214.693 131.359 214.551 131.797C200.4 129.809 191.824 138.185 184.123 148.903C177.236 136.564 165.719 130.838 154.143 125.041C162.79 122.77 171.153 119.02 179.504 124.899C176.645 122.332 173.716 119.836 170.196 116.748C179.575 116.748 187.572 116.524 195.486 116.819C201.274 117.115 206.991 118.44 209.413 126.662L209.425 126.65Z" fill="white"/>
<path d="M126.514 117.47C105.11 112.111 83.34 106.681 64.1332 94.5662C58.3451 90.8988 53.4312 85.6816 48.6708 80.6181C46.4738 78.2639 45.7414 74.5965 45.009 71C56.4433 82.3099 69.0589 91.5613 83.3518 98.3165C97.6447 105.072 112.162 111.093 126.526 117.482L126.514 117.47Z" fill="white"/>
</g>
<defs>
<linearGradient id="paint0_linear_1672_2952" x1="-14.5" y1="97.5" x2="260.5" y2="140" gradientUnits="userSpaceOnUse">
<stop stop-color="#A329CD"/>
<stop offset="1" stop-color="#7700C7"/>
</linearGradient>
<clipPath id="clip0_1672_2952">
<rect width="181" height="108" fill="white" transform="translate(34 71)"/>
</clipPath>
</defs>
</svg>
